<?xml version="1.0" standalone="no"?>
<!DOCTYPE svg PUBLIC "-//W3C//DTD SVG 20010904//EN"
 "http://www.w3.org/TR/2001/REC-SVG-20010904/DTD/svg10.dtd">
<svg version="1.0" xmlns="http://www.w3.org/2000/svg"
 width="285.000000pt" height="568.000000pt" viewBox="0 0 285.000000 568.000000"
 preserveAspectRatio="xMidYMid meet">
<metadata>
Created by potrace 1.15, written by Peter Selinger 2001-2017
</metadata>
<g transform="translate(0.000000,568.000000) scale(0.100000,-0.100000)"
fill="#000000" stroke="none">
<path d="M1295 5504 c-83 -45 -117 -106 -123 -221 -4 -70 -7 -83 -23 -88 -11
-4 -19 -12 -19 -19 0 -23 32 -111 44 -121 7 -5 18 -36 26 -68 7 -32 16 -54 20
-50 4 4 16 32 26 62 10 30 33 70 50 88 29 31 36 33 94 33 59 0 65 -2 100 -38
24 -24 44 -57 55 -94 10 -31 21 -55 25 -53 4 2 13 32 20 65 7 33 16 60 20 60
5 0 17 27 28 60 20 57 20 60 3 72 -13 10 -19 32 -24 90 -7 95 -42 168 -101
207 -32 21 -53 26 -115 29 -55 2 -84 -2 -106 -14z"/>
<path d="M1356 5048 c-29 -149 -23 -138 -105 -219 -43 -42 -99 -89 -125 -104
l-49 -28 84 -18 c46 -9 104 -24 128 -33 24 -9 49 -16 55 -16 9 0 16 61 24 206
7 113 14 210 15 216 1 6 -3 13 -10 15 -7 2 -14 -6 -17 -19z"/>
<path d="M1416 5061 c-5 -8 10 -312 20 -397 l5 -42 52 20 c29 11 90 28 136 37
l83 17 -55 37 c-76 50 -174 147 -192 190 -8 20 -18 61 -21 91 -6 52 -16 68
-28 47z"/>
<path d="M940 4651 c0 -6 9 -11 20 -11 41 0 103 -79 149 -190 57 -138 94 -210
128 -250 27 -33 99 -90 113 -90 12 0 21 276 13 370 -8 81 -9 85 -42 107 -59
40 -157 65 -273 70 -77 4 -108 2 -108 -6z"/>
<path d="M1602 4645 c-93 -20 -170 -59 -182 -90 -11 -28 -14 -403 -4 -429 5
-14 9 -14 32 -2 38 20 105 93 135 146 14 25 46 96 72 157 56 135 92 187 139
204 20 7 36 17 36 21 0 13 -159 8 -228 -7z"/>
<path d="M820 4587 c-19 -12 -43 -37 -53 -55 -26 -45 -34 -155 -15 -202 l14
-35 53 55 c76 79 191 216 191 228 0 15 -57 32 -110 32 -32 0 -58 -7 -80 -23z"/>
<path d="M1793 4595 c-18 -8 -33 -16 -33 -19 0 -8 173 -206 213 -245 l36 -34
11 27 c5 15 10 58 10 95 0 121 -59 191 -160 191 -25 -1 -60 -7 -77 -15z"/>
<path d="M974 4477 c-57 -62 -90 -118 -81 -139 5 -15 74 -32 181 -44 l59 -7
-7 38 c-15 79 -73 205 -95 205 -5 0 -31 -24 -57 -53z"/>
<path d="M1718 4508 c-20 -30 -64 -144 -73 -187 l-7 -34 65 7 c73 8 174 30
185 40 15 16 -108 188 -139 194 -9 2 -23 -7 -31 -20z"/>
<path d="M830 4303 c-55 -86 -57 -115 -31 -398 l6 -70 28 37 c67 87 81 190 51
362 -8 49 -13 95 -10 102 12 32 -17 10 -44 -33z"/>
<path d="M1891 4257 c-23 -156 -24 -210 -7 -268 15 -54 69 -149 83 -149 10 0
18 125 18 280 0 107 -2 118 -27 161 -47 81 -52 79 -67 -24z"/>
<path d="M905 4213 c10 -101 38 -174 123 -323 42 -74 89 -171 104 -215 l26
-80 51 52 c86 89 141 224 141 349 l0 62 -72 57 c-40 32 -92 76 -114 97 -40 38
-46 40 -145 53 -57 8 -108 15 -113 15 -4 0 -5 -30 -1 -67z"/>
<path d="M1731 4265 c-87 -12 -96 -15 -135 -52 -22 -22 -74 -66 -113 -98 l-73
-57 0 -62 c0 -125 56 -260 144 -351 l49 -50 23 75 c13 41 48 118 79 170 108
182 154 306 155 408 0 37 8 36 -129 17z"/>
<path d="M2232 3667 c32 -92 95 -316 122 -439 7 -30 27 -36 45 -15 8 11 -3 53
-48 178 -77 215 -140 377 -151 384 -4 3 10 -46 32 -108z"/>
<path d="M540 3693 c-38 -90 -88 -225 -136 -367 -25 -75 -31 -103 -23 -113 26
-30 37 -9 73 141 20 85 57 212 81 282 24 71 42 130 40 132 -1 2 -17 -32 -35
-75z"/>
<path d="M1311 3730 c-14 -19 -49 -68 -79 -108 -50 -67 -54 -75 -43 -99 13
-29 131 -173 142 -173 16 0 25 317 10 385 l-6 30 -24 -35z"/>
<path d="M1416 3714 c-13 -99 -2 -368 16 -362 15 5 148 171 148 186 0 11 -147
222 -155 222 -1 0 -5 -21 -9 -46z"/>
<path d="M566 3638 c-63 -145 -94 -238 -102 -302 l-6 -51 21 25 c34 41 88 151
110 225 19 61 40 215 30 215 -2 0 -26 -51 -53 -112z"/>
<path d="M2160 3693 c0 -104 71 -303 135 -378 l25 -30 -6 50 c-8 62 -49 181
-104 305 -23 52 -44 97 -46 99 -2 2 -4 -18 -4 -46z"/>
<path d="M770 3700 c-8 -5 -25 -10 -37 -10 -40 0 -73 -57 -167 -285 l-46 -110
50 53 c54 57 176 235 216 313 24 49 19 62 -16 39z"/>
<path d="M1970 3704 c0 -13 80 -144 146 -239 75 -107 120 -162 128 -154 6 6
-73 198 -122 295 -35 69 -45 80 -87 86 -16 3 -38 9 -47 13 -10 4 -18 4 -18 -1z"/>
<path d="M1071 3424 c-21 -27 -45 -95 -56 -157 l-6 -38 48 49 c47 48 134 92
183 92 36 0 22 27 -30 59 -51 30 -113 28 -139 -5z"/>
<path d="M1565 3439 c-28 -16 -65 -51 -65 -61 0 -4 9 -8 20 -8 49 0 136 -44
183 -92 l48 -49 -6 38 c-13 73 -25 110 -48 144 -19 29 -29 34 -67 36 -25 2
-54 -2 -65 -8z"/>
<path d="M1215 3304 c-102 -23 -185 -77 -216 -140 -21 -45 -22 -51 -10 -153
12 -111 27 -181 39 -181 4 0 12 10 17 23 7 14 48 41 122 77 115 57 173 102
193 149 6 16 10 70 8 127 l-3 99 -65 2 c-36 0 -74 -1 -85 -3z"/>
<path d="M1398 3304 c-14 -13 -9 -193 6 -227 22 -51 67 -86 188 -146 88 -44
116 -63 127 -86 l15 -30 13 44 c7 24 18 90 24 147 10 92 10 109 -5 149 -21 53
-74 98 -149 127 -54 21 -206 36 -219 22z"/>
<path d="M286 3163 c-16 -16 -26 -23 -22 -16 18 32 -25 19 -120 -38 -91 -54
-103 -64 -90 -77 20 -20 77 0 136 46 25 20 51 40 59 46 8 6 3 -7 -12 -30 -14
-23 -27 -48 -29 -55 -4 -20 81 -119 103 -119 24 0 43 31 63 99 23 78 21 147
-3 161 -32 16 -55 12 -85 -17z"/>
<path d="M2408 3183 c-38 -10 -36 -100 4 -201 14 -35 30 -58 41 -60 11 -2 37
16 69 48 l51 52 -18 36 c-9 21 -33 58 -53 85 -35 46 -49 52 -94 40z"/>
<path d="M1263 2939 c-64 -45 -64 -45 -18 -309 13 -74 27 -166 31 -205 l7 -70
12 80 c7 44 20 107 29 140 21 73 31 238 22 328 -9 79 -18 82 -83 36z"/>
<path d="M1435 2953 c-3 -10 -9 -65 -12 -123 -4 -85 -1 -124 17 -205 12 -55
27 -130 33 -167 7 -37 15 -69 18 -72 3 -4 9 29 12 71 4 43 18 140 32 217 14
76 25 159 23 184 -3 41 -8 50 -46 79 -49 37 -67 41 -77 16z"/>
<path d="M1142 2754 c-55 -219 -64 -329 -36 -462 13 -66 84 -242 97 -242 2 0
4 30 4 68 0 37 4 146 8 243 8 183 -5 400 -29 482 l-12 41 -32 -130z"/>
<path d="M1581 2818 c-26 -145 -35 -377 -22 -555 8 -94 11 -184 7 -199 -7 -29
-7 -29 9 -7 27 38 76 155 91 218 20 85 18 236 -5 352 -19 96 -56 242 -65 250
-2 2 -9 -24 -15 -59z"/>
<path d="M1068 2792 c-38 -41 -47 -58 -59 -117 -18 -92 -16 -295 5 -417 9 -54
16 -130 17 -170 l1 -73 25 95 c29 110 29 108 14 220 -18 127 5 347 49 461 24
64 7 65 -52 1z"/>
<path d="M1640 2837 c0 -2 9 -30 20 -61 44 -130 62 -370 37 -492 -11 -50 -11
-68 0 -99 7 -21 19 -68 27 -104 l14 -66 1 60 c1 33 11 123 22 200 16 105 20
169 16 255 -7 159 -21 211 -72 266 -34 36 -65 56 -65 41z"/>
<path d="M1237 2384 c-10 -184 -9 -384 2 -384 12 0 19 21 31 98 11 67 -3 352
-20 396 -4 11 -10 -38 -13 -110z"/>
<path d="M1514 2435 c-15 -133 -12 -385 6 -415 14 -23 15 -10 18 160 1 102 -2
219 -6 260 l-8 75 -10 -80z"/>
<path d="M1085 2118 c-15 -62 -56 -354 -61 -433 -6 -82 -4 -95 19 -151 15 -34
36 -78 48 -99 l22 -37 25 25 c24 24 24 26 13 108 -18 142 -31 399 -25 491 5
64 3 92 -6 103 -17 21 -29 19 -35 -7z"/>
<path d="M1653 2129 c-7 -7 -9 -51 -6 -132 6 -118 -9 -374 -28 -487 -7 -46 -6
-59 9 -79 9 -13 22 -23 27 -24 13 0 70 105 90 168 15 48 14 61 -9 230 -47 345
-51 356 -83 324z"/>
<path d="M1150 2003 c0 -135 29 -502 42 -536 6 -15 31 -45 56 -67 36 -32 43
-44 37 -62 -6 -23 -19 -240 -29 -493 l-5 -130 10 130 c5 72 18 195 29 275 22
161 26 250 10 250 -7 0 -7 7 1 21 8 15 10 73 7 183 -4 153 -6 166 -40 266 -46
136 -98 260 -109 260 -5 0 -9 -43 -9 -97z"/>
<path d="M1580 2035 c-18 -38 -50 -123 -73 -190 l-41 -120 0 -167 c-1 -184 4
-202 47 -173 56 36 74 81 86 210 20 217 30 451 22 481 -8 28 -9 27 -41 -41z"/>
<path d="M1087 1341 c-7 -33 -4 -49 34 -166 42 -131 57 -205 69 -340 12 -127
30 -179 30 -84 0 138 -41 425 -81 577 -14 51 -43 59 -52 13z"/>
<path d="M1637 1363 c-3 -5 -19 -74 -35 -153 -43 -207 -69 -489 -47 -500 6 -3
13 34 17 95 10 142 24 213 69 353 43 132 49 204 17 210 -9 2 -19 -1 -21 -5z"/>
<path d="M1136 578 c-41 -113 -40 -120 15 -130 26 -4 64 -5 85 0 37 7 39 10
42 47 2 22 -2 65 -9 95 l-12 55 -17 -65 c-24 -88 -29 -100 -46 -93 -20 7 -34
69 -27 119 3 24 3 44 0 44 -3 0 -17 -33 -31 -72z"/>
<path d="M1605 581 c0 -117 -43 -132 -66 -23 -19 89 -25 92 -39 16 -17 -98
-13 -117 30 -126 19 -4 59 -4 88 -1 41 5 52 9 52 24 0 19 -48 159 -59 171 -3
4 -6 -24 -6 -61z"/>
</g>
</svg>
