<?xml version="1.0" standalone="no"?>
<!DOCTYPE svg PUBLIC "-//W3C//DTD SVG 20010904//EN"
 "http://www.w3.org/TR/2001/REC-SVG-20010904/DTD/svg10.dtd">
<svg version="1.0" xmlns="http://www.w3.org/2000/svg"
 width="290.000000pt" height="557.000000pt" viewBox="0 0 290.000000 557.000000"
 preserveAspectRatio="xMidYMid meet">
<metadata>
Created by potrace 1.15, written by Peter Selinger 2001-2017
</metadata>
<g transform="translate(0.000000,557.000000) scale(0.100000,-0.100000)"
fill="#000000" stroke="none">
<path d="M1422 5413 c-87 -42 -150 -171 -140 -282 4 -36 1 -51 -9 -55 -7 -3
-13 -14 -13 -24 0 -26 30 -112 40 -112 4 0 10 -21 13 -47 6 -58 36 -86 117
-110 70 -20 103 -19 173 7 62 23 97 59 97 99 0 14 6 37 13 52 8 14 21 47 31
75 15 44 15 50 1 60 -10 8 -15 29 -15 71 0 88 -24 157 -73 210 -23 25 -56 52
-74 59 -44 19 -121 17 -161 -3z"/>
<path d="M1015 4560 c-58 -8 -107 -40 -128 -82 -19 -40 -34 -156 -22 -185 5
-14 11 -8 26 30 26 66 80 148 129 197 23 23 40 43 38 44 -1 1 -21 -1 -43 -4z"/>
<path d="M1960 4563 c0 -1 18 -21 40 -43 49 -49 103 -131 129 -197 25 -62 36
-39 27 54 -9 88 -26 125 -72 153 -31 20 -124 45 -124 33z"/>
<path d="M1121 4533 c-83 -41 -201 -183 -217 -260 -6 -32 -6 -32 23 -24 53 15
88 39 137 90 53 57 99 148 94 185 -3 25 -3 25 -37 9z"/>
<path d="M1857 4544 c-3 -3 0 -22 5 -42 32 -115 131 -224 230 -253 23 -6 28
-5 28 10 0 30 -50 119 -97 171 -60 67 -151 129 -166 114z"/>
<path d="M1260 4507 c-54 -17 -116 -88 -162 -182 -22 -47 -38 -92 -34 -100 8
-22 197 -110 267 -125 43 -10 64 -10 91 -1 68 22 71 32 67 202 l-4 151 -29 23
c-53 42 -126 54 -196 32z"/>
<path d="M1589 4492 l-54 -28 -3 -167 c-2 -163 -2 -166 20 -181 63 -40 150
-25 303 51 71 35 95 52 95 66 0 11 -15 52 -34 91 -85 176 -200 235 -327 168z"/>
<path d="M941 4220 c-48 -11 -82 -40 -110 -93 -19 -38 -25 -71 -33 -183 -9
-118 -8 -138 5 -152 14 -13 19 -13 45 4 41 26 104 105 143 177 26 49 32 74 37
143 7 112 -3 124 -87 104z"/>
<path d="M2003 4224 c-42 -18 -20 -179 39 -278 45 -76 126 -166 150 -166 34 0
38 23 29 160 -8 116 -14 141 -38 189 -20 40 -38 61 -63 73 -39 19 -99 30 -117
22z"/>
<path d="M1385 4055 c-58 -21 -95 -66 -95 -116 l0 -40 25 19 c14 11 54 25 89
32 l65 12 6 41 c6 33 4 43 -11 54 -22 16 -29 16 -79 -2z"/>
<path d="M1558 4063 c-19 -5 -22 -22 -12 -71 6 -28 10 -31 70 -42 35 -7 75
-21 89 -32 l25 -19 0 39 c0 62 -50 112 -125 125 -16 3 -38 3 -47 0z"/>
<path d="M1358 3890 c-48 -26 -70 -60 -66 -102 l3 -33 80 3 c44 2 83 7 87 10
4 4 8 36 10 72 l3 65 -40 2 c-25 2 -54 -5 -77 -17z"/>
<path d="M1544 3895 c-4 -8 -2 -41 2 -73 l9 -57 80 -6 c44 -3 83 -4 88 -2 13
7 7 68 -9 91 -35 50 -156 83 -170 47z"/>
<path d="M742 3712 c-54 -54 -94 -129 -140 -262 -22 -63 -54 -146 -72 -185
-18 -38 -36 -81 -41 -95 -9 -24 -9 -24 7 -5 8 11 28 45 44 75 16 30 61 100
101 155 82 115 145 239 154 308 8 58 -2 60 -53 9z"/>
<path d="M2224 3699 c10 -75 60 -175 152 -304 44 -60 96 -141 116 -180 51 -96
48 -65 -6 53 -24 53 -56 135 -71 182 -48 146 -116 258 -178 292 -19 10 -20 8
-13 -43z"/>
<path d="M1324 3696 c-34 -15 -49 -57 -38 -102 5 -21 12 -24 54 -24 26 0 66
-7 89 -15 l41 -14 0 78 c0 63 -3 80 -16 85 -27 10 -98 6 -130 -8z"/>
<path d="M1563 3703 c-9 -3 -13 -30 -13 -83 l0 -79 41 14 c23 8 63 15 89 15
44 0 48 2 53 28 10 50 -3 83 -39 98 -32 14 -106 18 -131 7z"/>
<path d="M1186 3652 c-4 -6 -10 -310 -7 -363 2 -29 91 -55 91 -26 0 76 -23
344 -31 358 -11 22 -46 42 -53 31z"/>
<path d="M1790 3635 c-21 -22 -24 -38 -31 -157 -13 -221 -13 -228 14 -228 12
0 33 7 45 16 21 15 22 21 22 182 0 162 -5 212 -19 212 -4 0 -18 -11 -31 -25z"/>
<path d="M1313 3523 c-19 -7 -16 -54 16 -210 40 -192 73 -263 115 -247 9 3 19
18 23 32 7 30 -3 341 -13 365 -14 37 -104 75 -141 60z"/>
<path d="M1614 3505 c-23 -14 -45 -33 -49 -42 -4 -10 -9 -97 -12 -193 -5 -159
-4 -178 12 -193 9 -10 22 -16 29 -14 39 13 90 172 118 367 11 69 10 83 -2 90
-25 16 -53 11 -96 -15z"/>
<path d="M1821 3174 c-8 -21 -36 -76 -63 -122 -115 -195 -156 -330 -164 -537
l-4 -130 19 66 c11 36 47 137 80 225 83 223 129 366 142 439 14 81 9 111 -10
59z"/>
<path d="M1113 3153 c-10 -58 -11 -306 -1 -388 l7 -60 -13 55 c-11 48 -13 52
-20 31 -5 -14 -8 -106 -8 -205 0 -163 2 -191 25 -278 15 -54 45 -145 68 -204
52 -134 65 -128 62 27 -2 89 -10 139 -43 270 -23 89 -39 163 -37 166 3 2 10
-17 16 -42 6 -26 30 -95 52 -153 38 -101 41 -114 43 -227 2 -111 4 -120 22
-120 25 0 32 40 40 251 9 233 -3 326 -71 529 -30 88 -70 213 -90 278 -20 64
-38 117 -40 117 -2 0 -7 -21 -12 -47z"/>
<path d="M1180 3167 c0 -56 39 -194 113 -392 39 -104 85 -237 103 -295 l33
-105 1 70 c0 92 -15 214 -40 312 -19 75 -69 184 -165 361 -41 76 -45 80 -45
49z"/>
<path d="M1230 3197 c0 -3 27 -56 60 -117 49 -88 80 -174 80 -216 0 -2 5 -4
10 -4 11 0 70 115 70 136 0 6 -39 47 -88 90 -116 104 -132 118 -132 111z"/>
<path d="M1743 3168 c-73 -61 -173 -163 -173 -175 0 -25 59 -145 69 -139 5 3
12 27 16 53 4 29 32 96 71 171 35 67 62 122 59 122 -2 0 -21 -14 -42 -32z"/>
<path d="M1816 2978 c-37 -117 -79 -249 -94 -293 -26 -78 -26 -85 -26 -340 1
-263 7 -317 37 -323 15 -3 17 9 17 106 0 67 5 126 14 153 31 95 105 304 106
296 0 -4 -19 -81 -41 -170 -44 -172 -63 -354 -41 -393 9 -17 14 -11 37 41 39
86 81 218 99 307 17 81 22 308 9 408 l-7 55 -12 -50 -13 -50 7 70 c14 143 3
395 -17 395 -4 0 -37 -96 -75 -212z"/>
<path d="M380 3018 c-27 -39 -50 -78 -50 -87 0 -23 86 -111 109 -111 31 0 63
81 69 176 4 79 4 81 -19 87 -48 13 -59 7 -109 -65z"/>
<path d="M2530 3083 c-8 -3 -18 -11 -22 -17 -29 -43 28 -246 69 -246 8 0 38
23 66 51 l51 52 -23 43 c-32 59 -89 124 -109 123 -9 0 -24 -3 -32 -6z"/>
<path d="M1442 2899 c-47 -97 -48 -102 -27 -152 8 -20 15 -52 15 -72 0 -49 15
-44 29 9 15 60 34 236 29 272 -4 26 -9 19 -46 -57z"/>
<path d="M1530 2923 c0 -118 30 -283 51 -283 5 0 9 20 9 45 0 24 8 60 17 80
17 35 17 35 -22 118 -22 45 -43 86 -47 92 -4 5 -8 -19 -8 -52z"/>
<path d="M1345 2318 c-11 -299 -11 -318 6 -328 47 -30 81 135 60 293 -15 112
-42 237 -51 237 -4 0 -11 -91 -15 -202z"/>
<path d="M1641 2484 c-54 -206 -52 -476 5 -498 30 -12 37 22 29 142 -5 64 -9
176 -9 249 -1 72 -4 134 -8 138 -4 4 -11 -10 -17 -31z"/>
<path d="M1170 1685 c0 -87 6 -116 73 -375 24 -96 57 -245 73 -330 15 -85 31
-159 35 -164 22 -24 20 14 -4 122 -14 64 -33 189 -42 277 -9 89 -24 199 -35
245 -21 98 -78 281 -91 295 -5 5 -9 -23 -9 -70z"/>
<path d="M1806 1671 c-59 -185 -76 -274 -101 -521 -9 -85 -25 -187 -35 -226
-22 -78 -25 -114 -10 -114 11 0 8 -15 59 250 22 113 47 225 56 250 8 25 12 32
9 15 -3 -16 -19 -104 -34 -195 -15 -91 -36 -191 -45 -223 -9 -32 -14 -61 -12
-64 11 -10 38 71 99 296 47 176 63 251 70 336 9 120 6 149 -10 95 -7 -27 -8
-10 -4 73 6 131 -7 140 -42 28z"/>
<path d="M1381 1632 c-6 -12 -18 -54 -27 -94 -29 -129 -17 -580 17 -638 4 -8
9 -12 9 -8 0 4 16 93 35 198 19 105 35 223 35 263 0 61 -40 281 -54 294 -2 3
-9 -4 -15 -15z"/>
<path d="M1612 1619 c-6 -19 -21 -81 -32 -139 -19 -93 -20 -115 -10 -193 12
-102 65 -386 73 -393 16 -16 31 163 32 371 0 229 -8 301 -40 364 l-12 24 -11
-34z"/>
<path d="M1153 1494 c4 -90 15 -145 57 -300 65 -243 100 -354 111 -354 4 0 1
21 -7 48 -8 26 -28 128 -45 227 -26 157 -102 471 -116 485 -3 3 -3 -45 0 -106z"/>
<path d="M1296 694 c-3 -9 -6 -28 -6 -44 0 -16 -5 -41 -11 -56 -9 -26 -7 -31
34 -69 24 -22 52 -52 61 -67 25 -38 36 -27 36 36 0 107 -89 264 -114 200z"/>
<path d="M1677 692 c-36 -40 -67 -131 -67 -198 l0 -66 65 68 66 68 -11 67 c-5
37 -10 70 -10 73 0 13 -28 5 -43 -12z"/>
<path d="M1210 453 c-28 -37 -47 -70 -43 -74 5 -4 38 -11 74 -15 l66 -6 12 32
c19 56 14 86 -18 109 -16 12 -32 21 -35 21 -3 0 -28 -30 -56 -67z"/>
<path d="M1716 499 c-28 -22 -34 -65 -16 -113 8 -22 15 -26 47 -25 63 2 98 13
97 31 -1 17 -82 128 -94 128 -4 0 -19 -9 -34 -21z"/>
</g>
</svg>
